<svg width="25" height="24" viewBox="0 0 25 24" fill="none" xmlns="http://www.w3.org/2000/svg">
<path d="M8.71377 8.85335C9.40977 10.303 10.3586 11.6616 11.5601 12.8632C12.7617 14.0648 14.1204 15.0136 15.57 15.7096C15.6947 15.7694 15.757 15.7994 15.8359 15.8224C16.1163 15.9041 16.4605 15.8454 16.6979 15.6754C16.7648 15.6275 16.8219 15.5704 16.9362 15.4561C17.2858 15.1064 17.4606 14.9316 17.6364 14.8174C18.2993 14.3864 19.1539 14.3864 19.8168 14.8174C19.9926 14.9316 20.1674 15.1064 20.517 15.4561L20.7118 15.6509C21.2433 16.1824 21.509 16.4481 21.6533 16.7335C21.9404 17.301 21.9404 17.9713 21.6533 18.5389C21.509 18.8242 21.2433 19.09 20.7118 19.6214L20.5542 19.779C20.0246 20.3087 19.7598 20.5735 19.3997 20.7757C19.0002 21.0001 18.3797 21.1615 17.9215 21.1601C17.5086 21.1589 17.2263 21.0788 16.6619 20.9186C13.6285 20.0576 10.7661 18.4332 8.37816 16.0452C5.99018 13.6572 4.3657 10.7948 3.50473 7.76144C3.34452 7.19699 3.26442 6.91477 3.26319 6.50182C3.26183 6.0436 3.42319 5.42311 3.64761 5.0236C3.84986 4.66357 4.11467 4.39876 4.64429 3.86913L4.80193 3.7115C5.33337 3.18006 5.59909 2.91433 5.88447 2.76999C6.45203 2.48292 7.1223 2.48292 7.68986 2.76999C7.97524 2.91433 8.24096 3.18006 8.7724 3.7115L8.96727 3.90637C9.31688 4.25597 9.49168 4.43078 9.60597 4.60655C10.037 5.26945 10.037 6.12403 9.60597 6.78692C9.49168 6.96269 9.31688 7.1375 8.96727 7.4871C8.85296 7.60142 8.79581 7.65857 8.74796 7.72538C8.57795 7.96281 8.51925 8.30707 8.60098 8.58743C8.62397 8.66632 8.65391 8.72866 8.71377 8.85335Z" stroke="white" stroke-width="2" stroke-linecap="round" stroke-linejoin="round"/>
</svg>
